<mxfile host="app.diagrams.net" modified="2024-05-29T13:58:33.892Z" agent="Mozilla/5.0 (Windows NT 10.0; Win64; x64) AppleWebKit/537.36 (KHTML, like Gecko) Chrome/121.0.0.0 Safari/537.36" etag="nsA2lsPQ4Q0h7Byyk7EQ" version="24.4.9" type="device">
  <diagram name="PÃ¡gina-1" id="zHV9qhDMT_DlqItQ5hyR">
    <mxGraphModel dx="1434" dy="1941" grid="1" gridSize="10" guides="1" tooltips="1" connect="1" arrows="1" fold="1" page="1" pageScale="1" pageWidth="827" pageHeight="1169" math="0" shadow="0">
      <root>
        <mxCell id="0" />
        <mxCell id="1" parent="0" />
        <mxCell id="Lx17exTXhpABqo87e4Q7-1" value="" style="rounded=1;whiteSpace=wrap;html=1;" vertex="1" parent="1">
          <mxGeometry x="80" y="-100" width="800" height="450" as="geometry" />
        </mxCell>
        <mxCell id="Lx17exTXhpABqo87e4Q7-2" value="" style="rounded=0;whiteSpace=wrap;html=1;" vertex="1" parent="1">
          <mxGeometry x="260" width="400" height="40" as="geometry" />
        </mxCell>
        <mxCell id="Lx17exTXhpABqo87e4Q7-3" value="BUSCAR CLIENTE" style="text;strokeColor=none;fillColor=none;html=1;fontSize=24;fontStyle=1;verticalAlign=middle;align=center;" vertex="1" parent="1">
          <mxGeometry x="430" y="-70" width="100" height="40" as="geometry" />
        </mxCell>
        <mxCell id="Lx17exTXhpABqo87e4Q7-5" value="" style="rounded=0;whiteSpace=wrap;html=1;" vertex="1" parent="1">
          <mxGeometry x="660" width="40" height="40" as="geometry" />
        </mxCell>
        <mxCell id="Lx17exTXhpABqo87e4Q7-6" value="" style="sketch=0;outlineConnect=0;fontColor=#232F3E;gradientColor=none;fillColor=#01A88D;strokeColor=none;dashed=0;verticalLabelPosition=bottom;verticalAlign=top;align=center;html=1;fontSize=12;fontStyle=0;aspect=fixed;pointerEvents=1;shape=mxgraph.aws4.sagemaker_geospatial_ml;" vertex="1" parent="1">
          <mxGeometry x="665" y="5" width="30" height="30" as="geometry" />
        </mxCell>
      </root>
    </mxGraphModel>
  </diagram>
</mxfile>
